<svg width="21" height="16" viewBox="0 0 21 16" fill="none" xmlns="http://www.w3.org/2000/svg">
<path d="M17.4211 7.99599C17.4221 7.22177 17.6886 6.47964 18.1622 5.93257C18.6358 5.38549 19.2778 5.07815 19.9471 5.07815V1.4248H1V5.07815C1.66934 5.07815 2.31131 5.38549 2.78493 5.93257C3.25856 6.47964 3.52509 7.22177 3.52602 7.99599C3.52602 8.7713 3.26002 9.515 2.7864 10.0636C2.31277 10.6122 1.67028 10.9209 1 10.922V14.5754H19.9471V10.922C19.2769 10.9209 18.6344 10.6122 18.1607 10.0636C17.6871 9.515 17.4211 8.7713 17.4211 7.99599Z" fill="black" stroke="black" stroke-width="1.5" stroke-miterlimit="10"/>
<path d="M14.8913 9.708C14.8913 7.836 13.0673 7.344 11.4593 6.996V4.788C12.3233 4.944 12.8873 5.46 13.1033 6.312L14.5793 5.964C14.3033 4.608 13.1273 3.648 11.4593 3.456V2.388H10.6913V3.42C8.78327 3.468 7.51127 4.404 7.51127 5.82C7.51127 7.428 9.14327 7.872 10.6913 8.232V10.812C9.70727 10.632 9.08327 10.056 8.86727 8.88L7.36727 9.168C7.63127 10.968 8.89127 11.94 10.6913 12.144V13.32H11.4593V12.18C13.5833 12.168 14.8913 11.172 14.8913 9.708ZM9.03527 5.808C9.03527 5.148 9.68327 4.764 10.6913 4.728V6.828C9.75527 6.612 9.03527 6.372 9.03527 5.808ZM11.4593 8.412C12.5153 8.676 13.3793 8.976 13.3793 9.732C13.3793 10.416 12.6953 10.872 11.4593 10.872V8.412Z" fill="#F2F2F2"/>
</svg>
