<svg width="29" height="29" viewBox="0 0 29 29" fill="none" xmlns="http://www.w3.org/2000/svg">
<path fill-rule="evenodd" clip-rule="evenodd" d="M6.22532 0.992C6.6773 0.976838 7.1253 1.07521 7.53043 1.27759C7.92807 1.47623 8.27149 1.76856 8.53394 2.12811C8.93223 2.59445 9.33213 3.39334 9.6424 4.23931C9.95267 3.39334 10.3526 2.59445 10.7508 2.12811C11.0133 1.76856 11.3567 1.47623 11.7544 1.27759C12.1595 1.07521 12.6075 0.976838 13.0595 0.992C13.6591 0.995118 14.2418 1.18508 14.7313 1.53437C15.2242 1.88617 15.598 2.38181 15.8069 2.95265C16.0158 3.5233 16.0512 4.14504 15.909 4.73616C15.7668 5.32737 15.4528 5.86361 15.0047 6.2716L15.0015 6.2745C14.6164 6.62103 14.0803 6.89678 13.557 7.11503C13.0729 7.31691 12.547 7.4908 12.0543 7.63465L18.9667 7.63466V13.427H23.1368L28.1975 17.8519V20.327H28.1975V26.4424H25.7964C25.7114 26.7787 25.5693 27.1 25.3745 27.3915C25.0383 27.8945 24.5607 28.286 24.0022 28.5173C23.4435 28.7488 22.8287 28.8092 22.2356 28.6913C21.6424 28.5733 21.0976 28.282 20.67 27.8544C20.2796 27.464 20.0028 26.9759 19.8678 26.4425H8.48857C8.4035 26.7788 8.26139 27.1 8.06663 27.3915C7.73049 27.8945 7.25283 28.286 6.69438 28.5173C6.13561 28.7488 5.5208 28.8092 4.92772 28.6913C4.33458 28.5733 3.78975 28.282 3.36213 27.8544C2.97169 27.464 2.69495 26.9759 2.55997 26.4424H0.158936V21.077V20.327V7.64166H0.55249V7.63464L7.23052 7.63465C6.73778 7.4908 6.21188 7.31691 5.72781 7.11503C5.20452 6.89678 4.66839 6.62103 4.28334 6.2745L4.28012 6.2716C3.83203 5.86361 3.518 5.32737 3.3758 4.73616C3.23363 4.14504 3.26902 3.5233 3.47788 2.95265C3.68681 2.38181 4.0606 1.88617 4.55352 1.53437C5.04294 1.18508 5.62573 0.995118 6.22532 0.992ZM8.70081 6.47196C8.61343 5.96074 8.46732 5.4179 8.28644 4.90171C7.98088 4.02972 7.62059 3.35978 7.38253 3.08982L7.35619 3.05996L7.33317 3.02748C7.20833 2.85137 7.04532 2.712 6.86009 2.61947C6.67502 2.52702 6.47222 2.48348 6.2691 2.49139L6.25458 2.49196L6.24006 2.49196C5.951 2.49202 5.66671 2.58274 5.42489 2.75532C5.18265 2.92821 4.99348 3.17591 4.8865 3.4682C4.77945 3.76068 4.761 4.081 4.83421 4.38538C4.90722 4.68891 5.06698 4.95879 5.28834 5.16095C5.48251 5.33509 5.82963 5.53226 6.3052 5.7306C6.7678 5.92354 7.2951 6.09466 7.80114 6.23796C8.12247 6.32895 8.43033 6.40735 8.70081 6.47196ZM10.584 6.47196C10.6714 5.96074 10.8175 5.4179 10.9984 4.90171C11.3039 4.02972 11.6642 3.35978 11.9023 3.08982L11.9286 3.05996L11.9516 3.02748C12.0765 2.85137 12.2395 2.712 12.4247 2.61947C12.6098 2.52702 12.8126 2.48348 13.0157 2.49139L13.0302 2.49196L13.0447 2.49196C13.3338 2.49202 13.6181 2.58274 13.8599 2.75532C14.1021 2.92821 14.2913 3.17591 14.3983 3.4682C14.5053 3.76068 14.5238 4.081 14.4506 4.38538C14.3776 4.68891 14.2178 4.95879 13.9964 5.16095C13.8023 5.33509 13.4552 5.53226 12.9796 5.7306C12.517 5.92354 11.9897 6.09466 11.4837 6.23796C11.1623 6.32895 10.8545 6.40735 10.584 6.47196ZM1.65894 20.327V9.13464L17.4667 9.13466V20.327H1.65894ZM18.9667 14.927V20.327H26.6975V18.5329L22.5735 14.927H18.9667ZM2.6993 24.5226C2.64256 24.6596 2.5961 24.7999 2.56002 24.9424H1.65894V21.827H26.6975V24.9424H25.7964C25.6623 24.4125 25.3873 23.9236 24.9942 23.5305C24.4209 22.9572 23.6432 22.6348 22.8321 22.6348C22.2275 22.6348 21.6363 22.8138 21.1333 23.1499C20.6302 23.4861 20.2385 23.9642 20.0072 24.5226C19.9504 24.6596 19.9039 24.7999 19.8679 24.9425H8.48855C8.35444 24.4125 8.07943 23.9236 7.68638 23.5305C7.11305 22.9572 6.33535 22.6348 5.52425 22.6348C4.91969 22.6348 4.32847 22.8138 3.82548 23.1499C3.32238 23.4861 2.93061 23.9642 2.6993 24.5226ZM4.65883 24.3971C4.91484 24.2261 5.21598 24.1348 5.52425 24.1348C5.93724 24.1348 6.33349 24.299 6.62572 24.5912C6.91789 24.8833 7.08196 25.2794 7.08196 25.6925C7.08196 26.0006 6.99056 26.302 6.81943 26.5581C6.64843 26.814 6.40527 27.0135 6.12036 27.1315C5.83578 27.2494 5.52258 27.2802 5.22036 27.2201C4.9182 27.16 4.64064 27.0116 4.42279 26.7938C4.2049 26.5759 4.05658 26.2984 3.99649 25.9963C3.93639 25.6942 3.96721 25.3813 4.08512 25.0966C4.20314 24.8117 4.40294 24.5681 4.65883 24.3971ZM22.8321 24.1348C22.5238 24.1348 22.2227 24.2261 21.9667 24.3971C21.7108 24.5681 21.511 24.8117 21.393 25.0966C21.2751 25.3813 21.2442 25.6942 21.3043 25.9963C21.3644 26.2984 21.5128 26.5759 21.7306 26.7938C21.9485 27.0116 22.2261 27.16 22.5282 27.2201C22.8304 27.2802 23.1436 27.2494 23.4282 27.1315C23.7131 27.0135 23.9563 26.814 24.1273 26.5581C24.2984 26.302 24.3898 26.0006 24.3898 25.6925C24.3898 25.2794 24.2257 24.8833 23.9336 24.5912C23.6414 24.299 23.2451 24.1348 22.8321 24.1348Z" fill="black"/>
</svg>
